<svg id="visual" viewBox="0 0 900 600" width="900" height="600" xmlns="http://www.w3.org/2000/svg" xmlns:xlink="http://www.w3.org/1999/xlink" version="1.1"><rect x="0" y="0" width="900" height="600" fill="#001220"></rect><defs><linearGradient id="grad1_0" x1="33.3%" y1="0%" x2="100%" y2="100%"><stop offset="20%" stop-color="#001220" stop-opacity="1"></stop><stop offset="80%" stop-color="#001220" stop-opacity="1"></stop></linearGradient></defs><defs><linearGradient id="grad2_0" x1="0%" y1="0%" x2="66.7%" y2="100%"><stop offset="20%" stop-color="#001220" stop-opacity="1"></stop><stop offset="80%" stop-color="#001220" stop-opacity="1"></stop></linearGradient></defs><g transform="translate(900, 0)"><path d="M0 486.7C-50.8 448.3 -101.5 409.9 -162.3 391.7C-223 373.6 -293.7 375.7 -344.2 344.2C-394.7 312.6 -424.9 247.4 -445.3 184.5C-465.7 121.5 -476.2 60.7 -486.7 0L0 0Z" fill="#FBAE3C"></path></g><g transform="translate(0, 600)"><path d="M0 -486.7C48.5 -446.1 96.9 -405.5 161.1 -389C225.3 -372.4 305.2 -379.9 344.2 -344.2C383.2 -308.5 381.2 -229.5 398.2 -164.9C415.1 -100.4 450.9 -50.2 486.7 0L0 0Z" fill="#FBAE3C"></path></g></svg>